<?xml version="1.0" encoding="utf-8"?>
<!-- Generator: Adobe Illustrator 25.0.0, SVG Export Plug-In . SVG Version: 6.00 Build 0)  -->
<svg version="1.1" id="Layer_1" xmlns="http://www.w3.org/2000/svg" xmlns:xlink="http://www.w3.org/1999/xlink" x="0px" y="0px"
	 viewBox="0 0 1808.14 650.9" style="enable-background:new 0 0 1808.14 650.9;" xml:space="preserve">
<style type="text/css">
	.st0{fill:#FFFFFF;}
	.st1{fill-rule:evenodd;clip-rule:evenodd;}
	.st2{fill-rule:evenodd;clip-rule:evenodd;fill:#FFFFFF;}
</style>
<g>
	<path class="st0" d="M1318.29,335.14c-1.79-1.49-2.99-2.48-4.18-3.48c-26.59-22.36-53.17-44.73-79.78-67.06
		c-0.79-0.66-2.02-1.35-2.93-1.23c-12.21,1.7-24.41,3.52-36.6,5.4c-0.68,0.11-1.26,0.93-1.88,1.41c0.58,0.59,1.05,1.47,1.75,1.7
		c1.91,0.65,3.92,1,5.87,1.53c7.27,1.99,11.43,7.37,11.44,14.87c0.01,31.22-0.01,62.44,0.02,93.66c0,4.76-1.5,8.97-4.22,12.82
		c-2.91,4.12-7.06,6.53-11.51,8.59c-1.24,0.58-2.33,1.49-3.72,2.4c2.68,1.54,81.25,1.51,83.69,0.07c-0.87-0.71-1.55-1.44-2.38-1.92
		c-1.29-0.75-2.7-1.29-4.03-1.98c-8.5-4.43-12.97-11.3-12.96-21.03c0.04-23.81,0.01-47.62,0.02-71.44c0-0.91,0.08-1.82,0.13-3.13
		c1.06,0.82,1.76,1.33,2.42,1.88c17.88,15.04,35.69,30.18,53.69,45.07c3.56,2.94,6.14,5.81,5.4,10.72c-0.17,1.1,0.16,2.28,0.29,3.42
		c2.87,24.37,14.93,42.31,37.2,53.07c6.09,2.94,7.19,2.18,7.19-4.55c0-52.12,0.03-104.24-0.03-156.37
		c-0.01-5.99,1.51-11.5,5.32-15.95c3.22-3.76,7.3-6.8,11-10.15c0.99-0.89,1.99-1.77,2.99-2.65c-0.11-0.26-0.22-0.52-0.34-0.78
		c-0.97,0.06-1.97,0-2.92,0.21c-14.02,3.08-28.03,6.19-42.04,9.31c-11.78,2.62-23.56,5.23-35.32,7.91
		c-0.91,0.21-1.68,1.02-2.52,1.56c0.79,0.56,1.54,1.23,2.39,1.66c0.69,0.35,1.52,0.42,2.28,0.62c9.76,2.6,14.27,8.43,14.27,18.5
		c0,20.64,0,41.27,0,61.91C1318.29,332.6,1318.29,333.46,1318.29,335.14z M589.26,291.68c0.36,0.02,0.72,0.03,1.08,0.05
		c0.45-1.71,1.22-3.41,1.3-5.14c0.54-12.14,1-24.29,1.33-36.44c0.07-2.62-0.49-5.25-0.75-7.89c-0.2-2.11-1.21-2.96-3.45-2.93
		c-6.08,0.09-11.91-1.3-17.43-3.79c-4.81-2.17-9.53-4.57-14.25-6.93c-35.44-17.76-78.39-10-104.71,18.94
		c-31.92,35.1-35.7,87.98-8.8,127.1c14.28,20.76,33.73,34.22,58.81,38.26c19.73,3.17,39.21,0.68,58.19-5.36
		c11.53-3.67,22.12-9.12,31.2-17.29c1.68-1.52,2.48-3.09,2.46-5.46c-0.09-11.99,0.08-23.99,0.03-35.98
		c-0.03-7.53,3.65-12.47,10.3-15.44c1.92-0.86,4.04-1.26,5.95-2.13c1.08-0.49,1.92-1.52,2.86-2.3c-1.16-0.35-2.31-1.01-3.47-1.01
		c-29.1-0.06-58.21-0.04-87.31-0.04c-0.62,0-1.29-0.14-1.84,0.05c-0.84,0.3-1.59,0.83-2.38,1.27c0.56,0.81,0.96,1.97,1.73,2.34
		c1.73,0.83,3.67,1.19,5.47,1.88c4.74,1.83,9.78,3.18,14.1,5.75c6.54,3.88,9.93,9.95,9.76,17.87c-0.18,8.73,0.12,17.47-0.11,26.19
		c-0.12,4.65-0.69,9.31-1.45,13.9c-0.58,3.51-3.04,5.48-6.65,5.77c-9.16,0.73-17.89-0.56-26.02-5.21
		c-11.37-6.5-19.34-16.13-24.97-27.65c-12.97-26.51-14.35-54.19-7.2-82.47c3.61-14.29,9.97-27.3,20.32-38.04
		c8.28-8.59,18.05-14.38,30.3-14.9c13.87-0.59,24.87,5.53,34.12,15.25c10.35,10.87,16.34,24.11,20.28,38.39
		C588.39,289.45,588.86,290.56,589.26,291.68z M962.02,288.51c-0.2,0.32-0.4,0.63-0.6,0.95c0.78,0.73,1.43,1.77,2.35,2.13
		c7.02,2.75,9.38,8.22,9.38,15.29c-0.04,27.25,0,54.5-0.04,81.75c0,2.37-0.16,4.77-0.55,7.1c-1.44,8.56-6.16,15.24-12.34,21.05
		c-0.84,0.79-1.65,1.6-2.88,2.79c7.86,0.02,14.44-2.21,20.9-4.84c10.84-4.41,21.86-7.94,33.74-7.93c0.62,0,1.24-0.42,1.86-0.64
		c-0.37-0.64-0.65-1.34-1.12-1.88c-0.32-0.37-0.89-0.56-1.38-0.76c-6.32-2.51-8.86-7.44-8.89-13.94c-0.03-7.76-0.02-15.52,0-23.28
		c0.01-5.33,2.6-7.88,8.02-7.88c10.58-0.01,21.17-0.01,31.75,0c5.96,0,8.44,2.52,8.45,8.58c0.01,6.97-0.07,13.94,0.02,20.9
		c0.1,7.36-2.21,13.12-9.59,16c-0.8,0.31-1.3,1.43-1.93,2.17c0.86,0.26,1.72,0.73,2.58,0.73c15.61,0.04,31.22,0.05,46.83-0.01
		c0.91,0,1.81-0.56,2.72-0.87c-0.66-0.73-1.18-1.81-2-2.13c-6.99-2.77-9.37-8.14-9.35-15.28c0.09-26.9,0.12-53.8-0.02-80.7
		c-0.04-7.6,2.04-13.5,9.69-16.4c0.8-0.3,1.3-1.39,1.95-2.12c-1.34-0.7-2.2-0.79-3.05-0.79c-15.52-0.01-31.04-0.02-46.57,0.03
		c-0.93,0-1.86,0.53-2.79,0.82c0.74,0.77,1.47,1.55,2.23,2.31c0.18,0.18,0.45,0.27,0.7,0.37c5.25,2.06,8.12,6.14,8.33,11.53
		c0.36,9.42,0.28,18.86,0.12,28.29c-0.06,3.81-2.95,6.41-6.76,6.44c-11.55,0.09-23.11,0.1-34.66-0.01c-3.75-0.04-6.59-2.9-6.62-6.58
		c-0.09-9.17-0.2-18.35,0.05-27.51c0.15-5.49,2.8-9.74,8.05-12.05c0.96-0.42,1.96-0.87,2.74-1.55c0.96-0.84,0.85-1.74-0.56-2.04
		c-0.59-0.13-1.23-0.05-1.85-0.05c-15.43,0-30.87,0-46.3,0C963.76,288.51,962.89,288.51,962.02,288.51z M756.31,323.18
		c0.84,1,1.35,1.55,1.81,2.14c17.35,22.23,34.67,44.48,52.04,66.7c4.39,5.62,8.77,11.27,13.39,16.7c4.43,5.22,9.94,8.93,16.74,10.45
		c0.84,0.19,1.72,0.14,2.85,0.23c-1.59-3-3.08-5.49-4.26-8.12c-4.09-9.12-5.02-18.83-5.03-28.67c-0.02-24.86,0.07-49.73-0.06-74.59
		c-0.04-7.65,2.02-13.69,9.77-16.64c0.79-0.3,1.28-1.4,2.38-2.66c-1.73-0.11-2.5-0.21-3.28-0.21c-15.69-0.01-31.39-0.01-47.08,0
		c-0.53,0-1.28-0.17-1.53,0.11c-0.4,0.43-0.81,1.38-0.6,1.72c0.38,0.61,1.18,1.05,1.89,1.33c6.75,2.68,9.2,7.91,9.17,14.83
		c-0.07,17.1-0.02,34.21-0.02,51.31c0,1.18,0,2.35,0,3.53c-1.12-0.53-1.7-1.25-2.27-1.97c-17.99-23.08-35.97-46.16-53.99-69.2
		c-0.58-0.74-1.62-1.58-2.45-1.59c-9.61-0.11-19.22-0.08-28.83-0.04c-0.53,0-1.06,0.44-1.6,0.68c0.3,0.59,0.5,1.26,0.92,1.74
		c0.32,0.37,0.88,0.57,1.37,0.76c6.81,2.64,9.19,7.99,9.19,14.85c-0.01,27.42-0.01,54.84,0,82.26c0,6.86-2.43,12.17-9.21,14.86
		c-0.99,0.39-1.75,1.35-2.62,2.04c0.11,0.27,0.23,0.53,0.34,0.8c1,0.1,1.99,0.28,2.99,0.29c12.61,0.02,25.22,0.01,37.82,0.01
		c3.26,0,6.52,0.03,9.79-0.04c0.5-0.01,1.31-0.39,1.41-0.76c0.12-0.44-0.28-1.12-0.64-1.54c-0.32-0.38-0.86-0.62-1.34-0.81
		c-6.93-2.65-9.27-8.03-9.25-15.04c0.07-20.81,0.02-41.62,0.03-62.42C756.15,325.39,756.24,324.56,756.31,323.18z M936.45,265.84
		c-4.95,2.51-9.88,1.31-14.79,0.27c-9.85-2.09-19.71-4.16-29.84-2.3c-15.56,2.86-27.64,10.58-33.74,25.67
		c-6.6,16.32-0.35,37.56,13.85,48.61c2.71,2.11,5.5,4.12,8.32,6.09c12.6,8.75,25.23,17.44,37.82,26.19
		c4.12,2.86,7.81,6.24,9.19,11.25c3.51,12.73-4.35,26.59-20,26.69c-16.68,0.11-29.98-7.25-40.06-20.17
		c-4.68-6-8.28-12.85-12.36-19.32c-0.85-1.34-1.64-2.71-2.81-4.66c-0.33,1.42-0.51,2-0.59,2.59c-1.68,12.47-1.11,24.81,2.45,36.92
		c1.35,4.58,3.38,8.86,6.87,12.32c6.7-3.45,13.5-3.21,20.35-0.98c12.3,3.99,24.85,4.73,37.61,3.12
		c19.83-2.5,33.19-14.37,36.78-33.28c3.44-18.12,0.09-34.43-14.09-47.33c-3.44-3.13-7.22-5.94-11.04-8.6
		c-12.65-8.82-25.47-17.4-38.05-26.32c-3.17-2.25-6.25-5.04-8.42-8.23c-5.78-8.51-1.5-19.72,8.45-22.31
		c13.19-3.43,29.61-0.24,38.37,16.35c3.05,5.78,7.18,9.84,12.78,12.75c2.58,1.34,5.11,2.76,7.69,4.08c0.74,0.38,1.6,0.52,2.4,0.78
		c0.24-0.19,0.48-0.38,0.73-0.56C950.54,291.35,944.6,278.21,936.45,265.84z M601.32,411.83c0.17,0.19,0.34,0.37,0.51,0.56
		c1.3-0.16,2.63-0.17,3.9-0.49c17.41-4.35,35.12-5.36,52.99-5.11c14.81,0.21,29.62,0.05,44.43,0.03c1.17,0,2.34,0.34,2.96-1.38
		c3.7-10.27,6.27-20.73,6.17-31.72c-0.01-1.2-0.39-2.39-0.61-3.62c-2.58,4.51-4.66,8.92-7.43,12.83
		c-6.38,8.98-15.09,13.75-26.35,13.5c-6.96-0.15-13.93-0.01-20.89-0.03c-5.07-0.01-7.65-2.57-7.68-7.63
		c-0.04-6-0.01-11.99-0.01-17.98c0-6.85,0-6.84,6.65-8.28c16.44-3.54,33.1-4.85,49.88-5.14c1.09-0.02,2.19-0.13,3.72-0.23
		c-0.63-1.24-1-2.1-1.48-2.88c-2.04-3.33-5.52-4.55-8.9-5.77c-4.11-1.48-5.98-4.47-6.2-8.62c-0.1-1.75-0.09-3.57,0.3-5.25
		c0.52-2.24-0.48-3.28-2.37-3.52c-2.6-0.34-5.34-0.85-7.86-0.4c-7.95,1.43-16.04,2.6-23.67,5.09
		c-19.22,6.26-35.96,16.52-48.45,32.86c-4.09,5.36-7.71,11.01-10.47,17.37c6.49-3.66,12.73-7.18,19.13-10.79
		C622.01,391.99,613.48,402.82,601.32,411.83z M1109.87,405.45c0.08,0.32,0.16,0.64,0.24,0.96c0.73,0.14,1.46,0.4,2.19,0.4
		c21.69,0.02,43.39,0.03,65.08-0.02c0.72,0,1.45-0.6,2.17-0.92c-0.62-0.54-1.15-1.32-1.87-1.58c-2.57-0.91-5.27-1.47-7.79-2.49
		c-6.59-2.66-9.39-6.98-9.39-14.05c0-26.63,0-53.26,0-79.9c0-7.64,3.15-12.12,10.42-14.67c2.15-0.76,4.39-1.27,6.54-2.04
		c0.85-0.3,1.56-0.97,2.61-1.65c-3.22-1.51-68.37-1.25-70.36,0.28c1.01,0.55,1.83,1.15,2.74,1.46c1.99,0.69,4.05,1.18,6.05,1.85
		c7.38,2.49,10.65,7.06,10.65,14.77c0,26.63,0,53.26,0,79.9c0,7.27-3,11.67-9.88,14.25c-2.14,0.8-4.4,1.28-6.56,2.02
		C1111.73,404.36,1110.82,404.96,1109.87,405.45z M851.58,244.36c-1.36-3.71-1.96-6.46-5.73-8.06c-4.61-1.95-7.81-6.18-10.48-10.54
		c-1.84-3-3.58-6.07-5.49-9.03c-2.84-4.41-6.52-5.94-11.56-4.7c-18.38,4.51-36.56,9.7-54.25,16.5c-15.09,5.8-29.01,13.55-41.3,24.15
		c-1.45,1.25-1.89,2.4-1.4,4.32c1.05,4.18,3.91,6.83,7.22,9.09c10.41,7.13,22.11,10.23,34.58,10.78c1.7,0.08,3.42,0.01,5.13,0.01
		c0.05-0.3,0.1-0.59,0.16-0.89c-2.28-1-4.54-2.05-6.84-2.98c-3.1-1.26-6.13-2.54-6-6.92c-2.96,0.83-5.52,1.55-8.07,2.27
		c-0.1-0.23-0.2-0.46-0.3-0.69c0.76-0.44,1.5-0.91,2.28-1.3c9.57-4.77,19.59-8.29,30-10.76c17.97-4.27,36.29-6.04,54.59-8.07
		C839.84,246.93,845.48,245.5,851.58,244.36z M1039.5,275.95c0.29,0.43,0.33,0.54,0.4,0.57c0.24,0.1,0.48,0.22,0.73,0.23
		c15.17,0.37,29.22-3.11,41.27-12.68c2.07-1.64,3.31-4.42,4.65-6.83c0.95-1.7,0.37-3.21-1.23-4.58
		c-9.42-8.1-19.77-14.74-31.08-19.82c-20.81-9.33-42.68-15.46-64.76-20.85c-4.98-1.22-8.51,0.41-11.3,4.75
		c-1.9,2.96-3.63,6.04-5.48,9.03c-2.68,4.34-5.88,8.56-10.5,10.53c-3.75,1.61-4.38,4.31-5.45,7.5c0.79,0.29,1.42,0.62,2.08,0.75
		c5.17,1.05,10.31,2.31,15.53,3.03c13.87,1.93,27.81,3.34,41.65,5.47c14.95,2.3,29.37,6.57,42.92,13.48
		c0.78,0.39,1.52,0.86,2.28,1.29c-0.1,0.22-0.2,0.43-0.3,0.65c-2.08-0.63-4.13-1.36-6.24-1.82c-0.7-0.15-2.2,0.35-2.23,0.66
		c-0.32,3.25-2.76,4.29-5.22,5.35C1044.67,273.75,1042.12,274.84,1039.5,275.95z M954.74,204.52c-0.01-0.36-0.01-0.72-0.02-1.07
		c-1.39-0.64-2.75-1.39-4.19-1.89c-4.16-1.42-8.31-2.88-12.54-4.07c-14.44-4.08-23.62-13.33-27.74-27.72
		c-1.33-4.65-2.8-9.26-4.33-13.84c-0.33-0.99-1.21-1.79-1.83-2.68c-0.65,0.85-1.32,1.68-1.92,2.56c-0.19,0.27-0.17,0.68-0.28,1.01
		c-2.26,6.56-4.41,13.17-6.82,19.68c-3.35,9.04-9.71,15.17-18.75,18.46c-6.11,2.22-12.29,4.28-18.41,6.47
		c-1.58,0.57-3.07,1.37-4.61,2.06c0.02,0.33,0.03,0.65,0.05,0.98c1.47,0.65,2.9,1.39,4.4,1.95c7.25,2.69,14.6,5.13,21.76,8.05
		c4.96,2.02,9.4,5.15,11.86,10.08c2.89,5.81,5.43,11.8,7.84,17.83c1.37,3.41,2.12,7.07,3.28,10.57c0.21,0.63,0.98,1.47,1.52,1.49
		c0.51,0.02,1.15-0.84,1.57-1.43c0.29-0.4,0.31-1,0.48-1.5c2.73-7.6,5.26-15.29,8.27-22.78c2.7-6.74,7.65-11.65,14.4-14.37
		c7.09-2.86,14.34-5.29,21.52-7.94C951.77,205.86,953.25,205.15,954.74,204.52z M705.53,323.36c0.18,0,0.37,0,0.55,0.01
		c0.13-1.5,0.4-3.01,0.38-4.51c-0.12-9.79-2.3-19.2-5.39-28.44c-0.52-1.57-1.35-1.96-2.88-1.94c-6.17,0.07-12.35,0.23-18.52-0.01
		c-13.65-0.54-27.33-0.81-40.91-2.16c-9.87-0.98-19.57-3.54-29.36-5.36c-1.22-0.23-2.48-0.26-3.77-0.39
		c0.04,0.49,0.01,0.61,0.06,0.65c0.45,0.41,0.88,0.87,1.39,1.19c9.02,5.61,12.72,14,12.74,24.33c0.03,14.81,0.08,29.63,0.12,44.44
		c0,0.89,0,1.79,0,3.22c8.57-8.24,17.74-14.42,27.73-19.44c0.81-0.41,1.54-1.85,1.56-2.82c0.12-8.64,0.05-17.28,0.08-25.93
		c0.02-5.06,2.65-7.67,7.65-7.68c6.7-0.01,13.41-0.07,20.11,0.04c2.09,0.03,4.22,0.35,6.25,0.88c8.71,2.31,14.25,8.42,18.45,15.96
		C703.19,317.95,704.28,320.7,705.53,323.36z M775.05,446.16c-1.17-0.35-1.55-0.57-1.92-0.57c-7.67-0.02-15.34-0.08-23.01,0.07
		c-0.78,0.01-1.85,1.11-2.24,1.96c-3.52,7.68-6.91,15.42-10.35,23.14c-0.36,0.8-0.78,1.57-1.43,2.87
		c-4.03-9.08-7.82-17.5-11.5-25.96c-0.64-1.48-1.36-2.16-3.08-2.14c-7.58,0.1-15.17,0.04-22.75,0.05c-0.62,0-1.23,0.18-2.59,0.4
		c1.23,0.77,1.76,1.25,2.38,1.45c5.22,1.75,7.09,5.48,6.99,10.79c-0.16,8.82-0.04,17.63-0.05,26.45c0,5.94-1.95,8.58-7.65,10.5
		c-1.09,0.37-2.13,0.89-3.19,1.34c0.06,0.22,0.11,0.44,0.17,0.65c7.27,0,14.53,0,22.18,0c-0.54-0.71-0.75-1.28-1.14-1.45
		c-4.69-2.12-5.63-6.08-5.58-10.71c0.1-7.85,0.03-15.7,0.03-23.54c0-1.15,0-2.31,0-3.46c0.25-0.05,0.51-0.1,0.76-0.15
		c5.87,13.17,11.73,26.35,17.6,39.52c0.3,0.1,0.6,0.2,0.91,0.3c1.43-2.33,3.13-4.53,4.26-7c4.43-9.68,8.69-19.45,13.02-29.18
		c0.39-0.87,0.88-1.7,1.32-2.55c0.35,10.14,0.45,20.06,0.28,29.97c-0.05,2.76-1.73,4.92-4.3,6.25c-0.72,0.37-1.34,0.96-2,1.45
		c0.07,0.18,0.14,0.37,0.21,0.55c11.32,0,22.64,0,33.96,0c0.08-0.26,0.15-0.51,0.23-0.77c-1.3-0.49-2.59-1.01-3.9-1.47
		c-4.77-1.7-6.78-4.5-6.78-9.49c0-9.43,0.07-18.87-0.03-28.3c-0.05-4.61,1.85-7.74,6.18-9.41
		C772.86,447.4,773.62,446.91,775.05,446.16z M845.1,476.93c1.85,0,3.59,0,5.33,0c5.75,0,11.21-1.14,16.14-4.21
		c9.88-6.14,9.91-16.72,0.07-22.96c-4.84-3.07-10.21-4.2-15.88-4.2c-9.61,0.01-19.22,0-28.83,0.01c-0.82,0-1.64,0.12-2.46,0.18
		c-0.06,0.23-0.12,0.46-0.18,0.7c0.77,0.42,1.51,0.93,2.33,1.24c4.33,1.64,6.31,4.78,6.28,9.37c-0.05,9.61-0.05,19.22,0,28.83
		c0.03,4-1.88,6.68-5.33,8.39c-1.1,0.54-2.33,0.8-3.47,1.28c-0.69,0.29-1.3,0.75-1.95,1.14c0.08,0.14,0.17,0.28,0.25,0.42
		c12.71,0,25.42,0,38.14,0c0.06-0.25,0.11-0.5,0.17-0.75c-1.35-0.5-2.69-1.01-4.05-1.48c-3.28-1.15-6.02-3.12-6.47-6.66
		C844.74,484.59,845.1,480.88,845.1,476.93z M942.09,444.23c0.24,0.81,0.29,1.45,0.6,1.92c1.44,2.16,1.02,4.13-0.01,6.4
		c-5.43,11.93-10.73,23.91-15.99,35.91c-1.56,3.56-3.96,5.94-7.77,6.9c-0.92,0.23-1.76,0.8-2.64,1.22c0.06,0.17,0.12,0.34,0.18,0.51
		c7.38,0,14.75,0,22.13,0c0.04-0.23,0.09-0.45,0.13-0.68c-1.18-0.46-2.36-0.96-3.55-1.38c-3.48-1.24-4.42-3.01-3.17-6.51
		c0.8-2.23,1.72-4.44,2.86-6.51c0.43-0.78,1.62-1.58,2.5-1.61c4.31-0.16,8.63-0.07,12.95-0.07c7.68,0,7.68,0,10.67,7.07
		c1.94,4.58,1.13,6.35-3.56,7.93c-0.94,0.32-1.81,0.84-2.71,1.27c0.1,0.21,0.19,0.41,0.29,0.62c11.16,0,22.33,0,33.49,0
		c0.07-0.21,0.14-0.42,0.21-0.63c-0.78-0.38-1.52-0.92-2.34-1.12c-4.12-1.01-6.55-3.66-8.22-7.49
		c-6.03-13.88-12.21-27.68-18.41-41.49c-0.4-0.89-1.38-2.12-2.14-2.15C952.5,444.14,947.41,444.23,942.09,444.23z M1181.85,497.22
		c0.1-0.27,0.19-0.55,0.29-0.82c-1.25-0.48-2.5-0.98-3.76-1.43c-5.02-1.75-7.05-4.57-7.05-9.87c0-10.32,0-20.63,0-30.95
		c0-0.94,0-1.87,0-3.54c4.4,0.53,8.45,0.66,12.3,1.59c4.33,1.05,5.08,5.92,7.47,9.04c0.22-0.14,0.45-0.28,0.67-0.43
		c0-5.02,0-10.05,0-15.04c-19.45,0-38.7,0-57.96,0c0,5.17,0,10.13,0,15.08c0.22,0.13,0.44,0.27,0.66,0.4
		c2.46-3.07,3.06-8.06,7.48-9.06c3.94-0.89,8.05-1.04,12.34-1.54c0,1.77,0,2.73,0,3.69c0,9.87,0,19.75,0,29.62
		c0,7.01-1.57,9.18-8.17,11.42c-0.88,0.3-1.69,0.82-2.53,1.23c0.07,0.2,0.15,0.41,0.22,0.61
		C1156.48,497.22,1169.17,497.22,1181.85,497.22z M1084.69,462.89c0.31-0.05,0.61-0.1,0.92-0.15c-0.29-4.33-0.53-8.66-0.96-12.97
		c-0.04-0.41-1.48-1.14-2.02-0.96c-3.6,1.2-6.69-0.36-9.97-1.37c-11.47-3.55-22.37-2.54-31.98,5.16
		c-12.26,9.83-12.4,27.06-0.4,37.22c8.16,6.91,17.69,8.79,28.01,6.95c7.53-1.34,13.75-4.87,17.5-11.88
		c0.62-1.17,0.97-2.48,1.45-3.73c-0.2-0.09-0.41-0.19-0.61-0.29c-0.43,0.6-0.89,1.19-1.3,1.8c-4.71,6.99-12.69,9.96-20.82,7.74
		c-11.33-3.09-17.21-14.75-13.35-26.73c2.2-6.85,6.46-11.75,13.95-12.81c7.89-1.12,13.62,2.37,17.75,8.9
		C1083.51,460.8,1084.08,461.86,1084.69,462.89z M615.79,445.72c0.44,0.65,0.53,0.96,0.72,1.04c0.97,0.41,1.96,0.78,2.95,1.12
		c5.25,1.8,7.21,4.49,7.21,9.98c0,8.72,0,17.45,0,26.17c0,6.91-1.62,9.13-8.24,11.38c-0.86,0.29-1.65,0.82-2.47,1.23
		c0.08,0.15,0.17,0.31,0.25,0.46c12.71,0,25.41,0,38.41,0c-0.4-0.56-0.5-0.87-0.7-0.96c-0.89-0.38-1.79-0.73-2.71-1.04
		c-5.54-1.85-7.51-4.55-7.51-10.31c0-8.46,0-16.92,0-25.38c0-7.55,1.39-9.47,8.52-11.97c0.77-0.27,1.46-0.81,2.18-1.22
		c-0.09-0.17-0.17-0.34-0.26-0.51C641.52,445.72,628.87,445.72,615.79,445.72z M1125.48,331.7c-5.17-0.4-10.24-1.1-15.29-1.08
		c-5.26,0.02-5.62,0.85-5.25,6.01c0.5,7.05-1.62,10.58-7.58,12.41c-1.74,0.53-3.52,1.37-4.88,2.53c-1.62,1.39-2.81,3.29-4.49,5.34
		c13.07,0.82,25.22,1.58,37.5,2.36C1125.48,350.34,1125.48,341.39,1125.48,331.7z M1197.24,385.83
		c-7.38-15.81-18.13-28.61-33.33-38.12c0,7.01-0.04,13.51,0.06,20.01c0.01,0.64,0.7,1.61,1.31,1.86
		C1176.37,374.08,1186.99,379.5,1197.24,385.83z"/>
	<path class="st1" d="M1318.29,335.14c0-1.68,0-2.54,0-3.41c0-20.64,0-41.27,0-61.91c0-10.07-4.5-15.9-14.27-18.5
		c-0.76-0.2-1.59-0.27-2.28-0.62c-0.86-0.44-1.6-1.1-2.39-1.66c0.84-0.53,1.61-1.35,2.52-1.56c11.76-2.69,23.54-5.3,35.32-7.91
		c14.01-3.11,28.02-6.23,42.04-9.31c0.94-0.21,1.94-0.14,2.92-0.21c0.11,0.26,0.22,0.52,0.34,0.78c-1,0.88-2,1.75-2.99,2.65
		c-3.7,3.35-7.78,6.38-11,10.15c-3.81,4.45-5.32,9.96-5.32,15.95c0.06,52.12,0.04,104.24,0.03,156.37c0,6.73-1.11,7.49-7.19,4.55
		c-22.27-10.75-34.33-28.7-37.2-53.07c-0.13-1.14-0.46-2.32-0.29-3.42c0.74-4.91-1.84-7.77-5.4-10.72
		c-18-14.89-35.81-30.02-53.69-45.07c-0.66-0.55-1.36-1.06-2.42-1.88c-0.06,1.31-0.13,2.22-0.13,3.13
		c-0.01,23.81,0.02,47.62-0.02,71.44c-0.02,9.72,4.46,16.6,12.96,21.03c1.33,0.69,2.74,1.24,4.03,1.98
		c0.83,0.48,1.51,1.21,2.38,1.92c-2.44,1.44-81.01,1.47-83.69-0.07c1.39-0.91,2.48-1.83,3.72-2.4c4.45-2.06,8.6-4.47,11.51-8.59
		c2.72-3.85,4.22-8.06,4.22-12.82c-0.02-31.22,0-62.44-0.02-93.66c0-7.5-4.16-12.88-11.44-14.87c-1.95-0.53-3.96-0.88-5.87-1.53
		c-0.69-0.24-1.17-1.12-1.75-1.7c0.63-0.49,1.2-1.31,1.88-1.41c12.19-1.88,24.39-3.7,36.6-5.4c0.91-0.13,2.14,0.57,2.93,1.23
		c26.62,22.33,53.2,44.7,79.78,67.06C1315.3,332.66,1316.5,333.65,1318.29,335.14z"/>
	<path class="st1" d="M589.26,291.68c-0.4-1.13-0.87-2.23-1.18-3.38c-3.94-14.29-9.93-27.53-20.28-38.39
		c-9.25-9.72-20.25-15.83-34.12-15.25c-12.25,0.52-22.02,6.31-30.3,14.9c-10.35,10.74-16.7,23.75-20.32,38.04
		c-7.15,28.27-5.77,55.96,7.2,82.47c5.64,11.52,13.6,21.15,24.97,27.65c8.13,4.65,16.86,5.93,26.02,5.21
		c3.61-0.29,6.07-2.26,6.65-5.77c0.76-4.59,1.33-9.25,1.45-13.9c0.22-8.72-0.08-17.46,0.11-26.19c0.17-7.92-3.22-13.99-9.76-17.87
		c-4.32-2.56-9.36-3.92-14.1-5.75c-1.8-0.7-3.75-1.05-5.47-1.88c-0.77-0.37-1.16-1.54-1.73-2.34c0.79-0.43,1.54-0.97,2.38-1.27
		c0.55-0.2,1.22-0.05,1.84-0.05c29.1,0,58.21-0.01,87.31,0.04c1.16,0,2.31,0.66,3.47,1.01c-0.95,0.79-1.78,1.81-2.86,2.3
		c-1.91,0.87-4.03,1.28-5.95,2.13c-6.64,2.97-10.33,7.91-10.3,15.44c0.05,11.99-0.12,23.99-0.03,35.98
		c0.02,2.37-0.78,3.94-2.46,5.46c-9.07,8.18-19.67,13.63-31.2,17.29c-18.99,6.04-38.47,8.53-58.19,5.36
		c-25.08-4.03-44.53-17.5-58.81-38.26c-26.91-39.12-23.12-92,8.8-127.1c26.32-28.93,69.26-36.69,104.71-18.94
		c4.72,2.37,9.44,4.76,14.25,6.93c5.52,2.49,11.35,3.88,17.43,3.79c2.24-0.03,3.25,0.81,3.45,2.93c0.25,2.63,0.82,5.27,0.75,7.89
		c-0.33,12.15-0.79,24.3-1.33,36.44c-0.08,1.73-0.85,3.43-1.3,5.14C589.98,291.72,589.62,291.7,589.26,291.68z"/>
	<path class="st1" d="M962.02,288.51c0.87,0,1.74,0,2.6,0c15.43,0,30.87,0,46.3,0c0.62,0,1.25-0.08,1.85,0.05
		c1.41,0.3,1.52,1.2,0.56,2.04c-0.77,0.68-1.78,1.13-2.74,1.55c-5.25,2.31-7.9,6.56-8.05,12.05c-0.26,9.17-0.15,18.34-0.05,27.51
		c0.04,3.68,2.87,6.54,6.62,6.58c11.55,0.11,23.11,0.1,34.66,0.01c3.82-0.03,6.7-2.63,6.76-6.44c0.16-9.43,0.24-18.87-0.12-28.29
		c-0.21-5.39-3.08-9.47-8.33-11.53c-0.24-0.1-0.52-0.19-0.7-0.37c-0.76-0.75-1.49-1.53-2.23-2.31c0.93-0.29,1.86-0.81,2.79-0.82
		c15.52-0.05,31.04-0.04,46.57-0.03c0.86,0,1.72,0.09,3.05,0.79c-0.64,0.72-1.15,1.81-1.95,2.12c-7.66,2.9-9.73,8.8-9.69,16.4
		c0.15,26.9,0.11,53.8,0.02,80.7c-0.02,7.14,2.36,12.51,9.35,15.28c0.82,0.32,1.34,1.4,2,2.13c-0.91,0.3-1.81,0.86-2.72,0.87
		c-15.61,0.05-31.22,0.05-46.83,0.01c-0.86,0-1.72-0.48-2.58-0.73c0.64-0.74,1.13-1.86,1.93-2.17c7.38-2.87,9.69-8.64,9.59-16
		c-0.1-6.97-0.01-13.93-0.02-20.9c-0.01-6.06-2.49-8.58-8.45-8.58c-10.58-0.01-21.17-0.01-31.75,0c-5.42,0.01-8,2.55-8.02,7.88
		c-0.02,7.76-0.03,15.52,0,23.28c0.03,6.5,2.57,11.43,8.89,13.94c0.49,0.19,1.05,0.38,1.38,0.76c0.47,0.54,0.76,1.25,1.12,1.88
		c-0.62,0.22-1.24,0.64-1.86,0.64c-11.88-0.01-22.9,3.52-33.74,7.93c-6.46,2.62-13.04,4.86-20.9,4.84c1.23-1.19,2.04-2,2.88-2.79
		c6.17-5.81,10.9-12.49,12.34-21.05c0.39-2.33,0.55-4.73,0.55-7.1c0.04-27.25,0-54.5,0.04-81.75c0.01-7.07-2.35-12.54-9.38-15.29
		c-0.92-0.36-1.57-1.4-2.35-2.13C961.63,289.14,961.83,288.83,962.02,288.51z"/>
	<path class="st1" d="M756.31,323.18c-0.08,1.38-0.16,2.21-0.16,3.04c-0.01,20.81,0.04,41.62-0.03,62.42
		c-0.02,7.01,2.32,12.39,9.25,15.04c0.49,0.19,1.02,0.43,1.34,0.81c0.36,0.42,0.75,1.11,0.64,1.54c-0.1,0.36-0.91,0.75-1.41,0.76
		c-3.26,0.07-6.52,0.04-9.79,0.04c-12.61,0-25.22,0.01-37.82-0.01c-1,0-1.99-0.19-2.99-0.29c-0.11-0.27-0.23-0.53-0.34-0.8
		c0.87-0.69,1.63-1.65,2.62-2.04c6.78-2.69,9.21-8,9.21-14.86c0-27.42-0.01-54.84,0-82.26c0-6.86-2.38-12.21-9.19-14.85
		c-0.49-0.19-1.05-0.39-1.37-0.76c-0.41-0.49-0.62-1.15-0.92-1.74c0.53-0.23,1.06-0.67,1.6-0.68c9.61-0.04,19.22-0.07,28.83,0.04
		c0.83,0.01,1.87,0.85,2.45,1.59c18.02,23.05,36,46.13,53.99,69.2c0.57,0.73,1.15,1.44,2.27,1.97c0-1.18,0-2.35,0-3.53
		c0-17.11-0.05-34.21,0.02-51.31c0.03-6.93-2.42-12.16-9.17-14.83c-0.71-0.28-1.51-0.73-1.89-1.33c-0.21-0.34,0.2-1.3,0.6-1.72
		c0.26-0.27,1-0.11,1.53-0.11c15.69,0,31.39,0,47.08,0c0.78,0,1.56,0.1,3.28,0.21c-1.09,1.26-1.58,2.36-2.38,2.66
		c-7.76,2.95-9.81,8.99-9.77,16.64c0.13,24.86,0.03,49.73,0.06,74.59c0.01,9.84,0.94,19.55,5.03,28.67
		c1.18,2.63,2.67,5.12,4.26,8.12c-1.13-0.08-2.01-0.04-2.85-0.23c-6.8-1.52-12.31-5.24-16.74-10.45c-4.62-5.44-9-11.08-13.39-16.7
		c-17.36-22.22-34.69-44.47-52.04-66.7C757.66,324.73,757.16,324.17,756.31,323.18z"/>
	<path class="st1" d="M936.45,265.84c8.14,12.38,14.08,25.51,17.88,39.59c-0.24,0.19-0.48,0.38-0.73,0.56
		c-0.8-0.25-1.66-0.4-2.4-0.78c-2.59-1.32-5.12-2.74-7.69-4.08c-5.61-2.91-9.73-6.97-12.78-12.75
		c-8.76-16.59-25.18-19.78-38.37-16.35c-9.95,2.59-14.24,13.8-8.45,22.31c2.17,3.19,5.24,5.98,8.42,8.23
		c12.58,8.92,25.4,17.5,38.05,26.32c3.82,2.67,7.6,5.47,11.04,8.6c14.18,12.9,17.54,29.21,14.09,47.33
		c-3.59,18.91-16.95,30.77-36.78,33.28c-12.77,1.61-25.32,0.88-37.61-3.12c-6.85-2.22-13.65-2.47-20.35,0.98
		c-3.49-3.46-5.53-7.74-6.87-12.32c-3.56-12.11-4.13-24.45-2.45-36.92c0.08-0.59,0.26-1.16,0.59-2.59c1.17,1.95,1.97,3.32,2.81,4.66
		c4.08,6.47,7.68,13.32,12.36,19.32c10.08,12.92,23.38,20.28,40.06,20.17c15.65-0.1,23.51-13.96,20-26.69
		c-1.38-5.01-5.07-8.38-9.19-11.25c-12.59-8.75-25.23-17.44-37.82-26.19c-2.82-1.96-5.61-3.98-8.32-6.09
		c-14.2-11.05-20.44-32.29-13.85-48.61c6.1-15.09,18.18-22.81,33.74-25.67c10.13-1.86,19.99,0.21,29.84,2.3
		C926.57,267.14,931.5,268.35,936.45,265.84z"/>
	<path class="st1" d="M601.32,411.83c12.16-9.02,20.69-19.84,18.25-36.6c-6.4,3.61-12.64,7.13-19.13,10.79
		c2.76-6.36,6.38-12.01,10.47-17.37c12.49-16.34,29.23-26.6,48.45-32.86c7.64-2.49,15.73-3.66,23.67-5.09
		c2.52-0.45,5.26,0.06,7.86,0.4c1.88,0.24,2.89,1.29,2.37,3.52c-0.4,1.68-0.4,3.51-0.3,5.25c0.23,4.15,2.09,7.13,6.2,8.62
		c3.39,1.22,6.86,2.43,8.9,5.77c0.48,0.79,0.85,1.65,1.48,2.88c-1.53,0.1-2.63,0.21-3.72,0.23c-16.77,0.28-33.44,1.6-49.88,5.14
		c-6.65,1.43-6.65,1.43-6.65,8.28c0,5.99-0.03,11.99,0.01,17.98c0.03,5.06,2.61,7.61,7.68,7.63c6.97,0.02,13.93-0.12,20.89,0.03
		c11.26,0.25,19.97-4.52,26.35-13.5c2.78-3.91,4.85-8.32,7.43-12.83c0.21,1.22,0.6,2.42,0.61,3.62c0.1,10.99-2.47,21.46-6.17,31.72
		c-0.62,1.71-1.79,1.38-2.96,1.38c-14.81,0.01-29.62,0.17-44.43-0.03c-17.87-0.25-35.58,0.77-52.99,5.11
		c-1.26,0.31-2.6,0.33-3.9,0.49C601.66,412.21,601.49,412.02,601.32,411.83z"/>
	<path class="st1" d="M1109.87,405.45c0.95-0.49,1.86-1.09,2.86-1.43c2.16-0.74,4.42-1.21,6.56-2.02c6.88-2.58,9.88-6.98,9.88-14.25
		c0-26.63,0-53.26,0-79.9c0-7.71-3.28-12.28-10.65-14.77c-2-0.67-4.06-1.16-6.05-1.85c-0.91-0.32-1.73-0.91-2.74-1.46
		c1.98-1.53,67.14-1.79,70.36-0.28c-1.05,0.68-1.77,1.35-2.61,1.65c-2.15,0.76-4.39,1.28-6.54,2.04
		c-7.27,2.55-10.42,7.03-10.42,14.67c0,26.63,0,53.26,0,79.9c0,7.07,2.81,11.39,9.39,14.05c2.52,1.02,5.22,1.58,7.79,2.49
		c0.72,0.26,1.25,1.04,1.87,1.58c-0.72,0.32-1.45,0.92-2.17,0.92c-21.69,0.05-43.39,0.04-65.08,0.02c-0.73,0-1.46-0.26-2.19-0.4
		C1110.02,406.09,1109.95,405.77,1109.87,405.45z"/>
	<path class="st1" d="M851.58,244.36c-6.1,1.14-11.74,2.57-17.47,3.21c-18.3,2.03-36.63,3.79-54.59,8.07
		c-10.4,2.47-20.42,5.99-30,10.76c-0.78,0.39-1.52,0.87-2.28,1.3c0.1,0.23,0.2,0.46,0.3,0.69c2.55-0.72,5.11-1.44,8.07-2.27
		c-0.13,4.39,2.89,5.67,6,6.92c2.31,0.93,4.56,1.98,6.84,2.98c-0.05,0.3-0.1,0.59-0.16,0.89c-1.71,0-3.42,0.07-5.13-0.01
		c-12.47-0.55-24.17-3.65-34.58-10.78c-3.31-2.27-6.17-4.91-7.22-9.09c-0.48-1.92-0.04-3.07,1.4-4.32
		c12.28-10.6,26.2-18.35,41.3-24.15c17.69-6.8,35.87-11.99,54.25-16.5c5.04-1.24,8.72,0.29,11.56,4.7c1.9,2.96,3.65,6.02,5.49,9.03
		c2.66,4.35,5.87,8.58,10.48,10.54C849.62,237.9,850.22,240.65,851.58,244.36z"/>
	<path class="st1" d="M1039.5,275.95c2.61-1.12,5.16-2.2,7.71-3.29c2.46-1.06,4.9-2.1,5.22-5.35c0.03-0.31,1.53-0.81,2.23-0.66
		c2.11,0.46,4.16,1.2,6.24,1.82c0.1-0.22,0.2-0.43,0.3-0.65c-0.76-0.43-1.5-0.9-2.28-1.29c-13.55-6.9-27.97-11.17-42.92-13.48
		c-13.84-2.13-27.78-3.55-41.65-5.47c-5.22-0.72-10.36-1.98-15.53-3.03c-0.66-0.13-1.28-0.46-2.08-0.75c1.07-3.19,1.7-5.89,5.45-7.5
		c4.61-1.97,7.82-6.19,10.5-10.53c1.85-3,3.58-6.07,5.48-9.03c2.78-4.34,6.32-5.96,11.3-4.75c22.08,5.39,43.95,11.52,64.76,20.85
		c11.31,5.07,21.66,11.72,31.08,19.82c1.6,1.38,2.18,2.88,1.23,4.58c-1.34,2.41-2.59,5.19-4.65,6.83
		c-12.05,9.57-26.1,13.05-41.27,12.68c-0.25-0.01-0.49-0.13-0.73-0.23C1039.83,276.49,1039.8,276.38,1039.5,275.95z"/>
	<path class="st1" d="M954.74,204.52c-1.49,0.64-2.96,1.34-4.49,1.9c-7.17,2.65-14.43,5.09-21.52,7.94
		c-6.75,2.72-11.7,7.62-14.4,14.37c-3,7.49-5.54,15.18-8.27,22.78c-0.18,0.5-0.19,1.1-0.48,1.5c-0.43,0.58-1.06,1.45-1.57,1.43
		c-0.54-0.03-1.31-0.86-1.52-1.49c-1.15-3.51-1.91-7.16-3.28-10.57c-2.41-6.03-4.95-12.02-7.84-17.83
		c-2.45-4.93-6.9-8.05-11.86-10.08c-7.16-2.92-14.51-5.36-21.76-8.05c-1.5-0.56-2.94-1.29-4.4-1.95c-0.02-0.33-0.03-0.65-0.05-0.98
		c1.53-0.69,3.03-1.5,4.61-2.06c6.12-2.19,12.3-4.25,18.41-6.47c9.04-3.29,15.4-9.42,18.75-18.46c2.41-6.51,4.56-13.11,6.82-19.68
		c0.11-0.33,0.1-0.74,0.28-1.01c0.6-0.88,1.28-1.71,1.92-2.56c0.62,0.89,1.5,1.7,1.83,2.68c1.53,4.58,3,9.2,4.33,13.84
		c4.12,14.39,13.29,23.65,27.74,27.72c4.23,1.19,8.38,2.65,12.54,4.07c1.44,0.49,2.8,1.25,4.19,1.89
		C954.73,203.8,954.73,204.16,954.74,204.52z"/>
	<path class="st1" d="M705.53,323.36c-1.25-2.67-2.34-5.42-3.77-7.98c-4.21-7.53-9.74-13.64-18.45-15.96
		c-2.02-0.54-4.16-0.85-6.25-0.88c-6.7-0.11-13.4-0.05-20.11-0.04c-5,0.01-7.62,2.62-7.65,7.68c-0.03,8.64,0.04,17.29-0.08,25.93
		c-0.01,0.97-0.75,2.41-1.56,2.82c-9.99,5.02-19.16,11.2-27.73,19.44c0-1.43,0-2.32,0-3.22c-0.04-14.81-0.09-29.63-0.12-44.44
		c-0.02-10.33-3.71-18.71-12.74-24.33c-0.51-0.32-0.93-0.78-1.39-1.19c-0.05-0.04-0.02-0.16-0.06-0.65
		c1.29,0.13,2.55,0.17,3.77,0.39c9.78,1.82,19.49,4.38,29.36,5.36c13.57,1.35,27.26,1.62,40.91,2.16
		c6.16,0.25,12.34,0.08,18.52,0.01c1.53-0.02,2.36,0.38,2.88,1.94c3.08,9.24,5.27,18.65,5.39,28.44c0.02,1.5-0.25,3-0.38,4.51
		C705.9,323.37,705.71,323.37,705.53,323.36z"/>
	<path class="st1" d="M775.05,446.16c-1.44,0.75-2.2,1.24-3.02,1.56c-4.32,1.66-6.22,4.79-6.18,9.41c0.09,9.43,0.03,18.87,0.03,28.3
		c0,4.99,2.01,7.79,6.78,9.49c1.31,0.47,2.6,0.98,3.9,1.47c-0.08,0.26-0.15,0.51-0.23,0.77c-11.32,0-22.64,0-33.96,0
		c-0.07-0.18-0.14-0.37-0.21-0.55c0.66-0.49,1.28-1.08,2-1.45c2.57-1.32,4.25-3.49,4.3-6.25c0.17-9.91,0.07-19.83-0.28-29.97
		c-0.44,0.85-0.93,1.67-1.32,2.55c-4.33,9.73-8.59,19.49-13.02,29.18c-1.13,2.46-2.82,4.67-4.26,7c-0.3-0.1-0.6-0.2-0.91-0.3
		c-5.87-13.17-11.73-26.35-17.6-39.52c-0.25,0.05-0.51,0.1-0.76,0.15c0,1.15,0,2.3,0,3.46c0,7.85,0.07,15.7-0.03,23.54
		c-0.06,4.63,0.89,8.59,5.58,10.71c0.39,0.18,0.6,0.75,1.14,1.45c-7.65,0-14.92,0-22.18,0c-0.06-0.22-0.11-0.43-0.17-0.65
		c1.06-0.45,2.1-0.98,3.19-1.34c5.7-1.92,7.65-4.56,7.65-10.5c0-8.82-0.12-17.64,0.05-26.45c0.1-5.31-1.77-9.05-6.99-10.79
		c-0.62-0.21-1.14-0.69-2.38-1.45c1.36-0.21,1.98-0.39,2.59-0.4c7.58-0.02,15.17,0.04,22.75-0.05c1.72-0.02,2.43,0.66,3.08,2.14
		c3.68,8.47,7.47,16.89,11.5,25.96c0.65-1.29,1.08-2.07,1.43-2.87c3.44-7.72,6.83-15.46,10.35-23.14c0.39-0.85,1.47-1.95,2.24-1.96
		c7.67-0.14,15.34-0.09,23.01-0.07C773.51,445.59,773.88,445.8,775.05,446.16z"/>
	<path class="st1" d="M845.1,476.93c0,3.95-0.35,7.66,0.1,11.28c0.44,3.54,3.19,5.52,6.47,6.66c1.36,0.47,2.7,0.99,4.05,1.48
		c-0.06,0.25-0.11,0.5-0.17,0.75c-12.71,0-25.42,0-38.14,0c-0.08-0.14-0.17-0.28-0.25-0.42c0.65-0.38,1.26-0.85,1.95-1.14
		c1.13-0.48,2.37-0.74,3.47-1.28c3.45-1.71,5.35-4.38,5.33-8.39c-0.06-9.61-0.05-19.22,0-28.83c0.02-4.59-1.96-7.72-6.28-9.37
		c-0.82-0.31-1.55-0.82-2.33-1.24c0.06-0.23,0.12-0.47,0.18-0.7c0.82-0.06,1.64-0.18,2.46-0.18c9.61-0.01,19.22,0,28.83-0.01
		c5.67,0,11.04,1.13,15.88,4.2c9.84,6.24,9.81,16.82-0.07,22.96c-4.94,3.07-10.4,4.2-16.14,4.21
		C848.68,476.93,846.94,476.93,845.1,476.93z M844.51,473.24c1.25,0,2.23,0.2,3.11-0.03c5.21-1.37,9.38-6.57,9-12.92
		c-0.32-5.37-4.29-10.06-9.68-11.32c-2.1-0.49-2.46,0.25-2.44,2.04c0.05,4.83,0.02,9.66,0.01,14.49
		C844.51,468.02,844.51,470.55,844.51,473.24z"/>
	<path class="st1" d="M942.09,444.23c5.32,0,10.41-0.09,15.49,0.1c0.75,0.03,1.74,1.26,2.14,2.15c6.2,13.8,12.38,27.61,18.41,41.49
		c1.67,3.84,4.1,6.48,8.22,7.49c0.82,0.2,1.56,0.74,2.34,1.12c-0.07,0.21-0.14,0.42-0.21,0.63c-11.16,0-22.33,0-33.49,0
		c-0.1-0.21-0.19-0.41-0.29-0.62c0.9-0.43,1.77-0.95,2.71-1.27c4.69-1.58,5.5-3.35,3.56-7.93c-2.99-7.07-2.99-7.07-10.67-7.07
		c-4.32,0-8.64-0.09-12.95,0.07c-0.88,0.03-2.07,0.83-2.5,1.61c-1.14,2.07-2.06,4.28-2.86,6.51c-1.25,3.5-0.31,5.27,3.17,6.51
		c1.2,0.43,2.37,0.92,3.55,1.38c-0.04,0.23-0.09,0.45-0.13,0.68c-7.38,0-14.75,0-22.13,0c-0.06-0.17-0.12-0.34-0.18-0.51
		c0.88-0.42,1.72-0.99,2.64-1.22c3.81-0.96,6.21-3.35,7.77-6.9c5.26-12,10.56-23.98,15.99-35.91c1.03-2.27,1.45-4.24,0.01-6.4
		C942.37,445.68,942.33,445.04,942.09,444.23z M947.03,455.54c-0.24,0.01-0.49,0.02-0.73,0.03c-2.91,6.55-5.81,13.1-8.85,19.95
		c6.33,0,12.14,0,18.46,0C952.84,468.63,949.94,462.09,947.03,455.54z"/>
	<path class="st1" d="M1181.85,497.22c-12.69,0-25.37,0-38.06,0c-0.08-0.2-0.15-0.41-0.22-0.61c0.84-0.42,1.65-0.93,2.53-1.23
		c6.6-2.24,8.17-4.4,8.17-11.42c0-9.88,0-19.75,0-29.62c0-0.96,0-1.92,0-3.69c-4.29,0.5-8.4,0.65-12.34,1.54
		c-4.41,1-5.01,5.99-7.48,9.06c-0.22-0.13-0.44-0.26-0.66-0.4c0-4.95,0-9.91,0-15.08c19.26,0,38.51,0,57.96,0
		c0,4.99,0,10.02,0,15.04c-0.22,0.14-0.45,0.28-0.67,0.43c-2.39-3.13-3.14-8-7.47-9.04c-3.85-0.93-7.9-1.05-12.3-1.59
		c0,1.67,0,2.61,0,3.54c0,10.32,0,20.63,0,30.95c0,5.3,2.03,8.12,7.05,9.87c1.27,0.44,2.51,0.95,3.76,1.43
		C1182.04,496.68,1181.95,496.95,1181.85,497.22z"/>
	<path class="st1" d="M1084.69,462.89c-0.61-1.04-1.19-2.1-1.83-3.11c-4.13-6.52-9.87-10.01-17.75-8.9
		c-7.5,1.06-11.75,5.96-13.95,12.81c-3.85,11.99,2.02,23.64,13.35,26.73c8.12,2.22,16.11-0.75,20.82-7.74
		c0.41-0.61,0.87-1.2,1.3-1.8c0.2,0.1,0.41,0.19,0.61,0.29c-0.48,1.25-0.83,2.56-1.45,3.73c-3.75,7-9.97,10.53-17.5,11.88
		c-10.32,1.84-19.85-0.04-28.01-6.95c-12-10.16-11.86-27.39,0.4-37.22c9.61-7.71,20.51-8.71,31.98-5.16
		c3.28,1.01,6.37,2.57,9.97,1.37c0.54-0.18,1.98,0.55,2.02,0.96c0.44,4.31,0.67,8.64,0.96,12.97
		C1085.31,462.8,1085,462.85,1084.69,462.89z"/>
	<path class="st1" d="M615.79,445.72c13.08,0,25.72,0,38.37,0c0.09,0.17,0.17,0.34,0.26,0.51c-0.73,0.41-1.41,0.95-2.18,1.22
		c-7.14,2.5-8.52,4.42-8.52,11.97c0,8.46,0,16.92,0,25.38c0,5.76,1.98,8.46,7.51,10.31c0.92,0.31,1.82,0.65,2.71,1.04
		c0.2,0.09,0.3,0.39,0.7,0.96c-13,0-25.7,0-38.41,0c-0.08-0.15-0.17-0.31-0.25-0.46c0.82-0.42,1.61-0.94,2.47-1.23
		c6.61-2.25,8.24-4.46,8.24-11.38c0-8.72,0-17.45,0-26.17c0-5.49-1.96-8.19-7.21-9.98c-1-0.34-1.98-0.71-2.95-1.12
		C616.33,446.68,616.23,446.37,615.79,445.72z"/>
	<path class="st1" d="M1125.48,331.7c0,9.69,0,18.64,0,27.56c-12.28-0.77-24.43-1.54-37.5-2.36c1.68-2.04,2.86-3.94,4.49-5.34
		c1.36-1.17,3.15-2,4.88-2.53c5.96-1.83,8.08-5.36,7.58-12.41c-0.37-5.16-0.01-5.99,5.25-6.01
		C1115.25,330.6,1120.31,331.31,1125.48,331.7z"/>
	<path class="st1" d="M1197.24,385.83c-10.25-6.33-20.87-11.75-31.97-16.25c-0.61-0.25-1.3-1.22-1.31-1.86
		c-0.1-6.5-0.06-12.99-0.06-20.01C1179.12,357.22,1189.86,370.02,1197.24,385.83z"/>
	<path class="st2" d="M844.51,473.24c0-2.69,0-5.22,0-7.74c0-4.83,0.03-9.66-0.01-14.49c-0.02-1.78,0.35-2.53,2.44-2.04
		c5.39,1.26,9.36,5.95,9.68,11.32c0.38,6.35-3.79,11.55-9,12.92C846.75,473.44,845.76,473.24,844.51,473.24z"/>
	<path class="st2" d="M947.03,455.54c2.91,6.55,5.82,13.09,8.87,19.98c-6.32,0-12.12,0-18.46,0c3.04-6.85,5.95-13.4,8.85-19.95
		C946.54,455.56,946.78,455.55,947.03,455.54z"/>
</g>
</svg>
